<svg xmlns="http://www.w3.org/2000/svg" viewBox="0 0 512 139">
  <title>Eater</title>
  <path d="M0,53.2V96.1A42.86,42.86,0,0,0,42.83,139H85.66V109.94H42.83A13.85,13.85,0,0,1,29,96.1V79.35H77.09V53.2H29V29.06H85.66V0H0V53.2Z"/>
  <path d="M315.81,53.2V96.1A42.86,42.86,0,0,0,358.63,139h42.83V109.94H358.64A13.85,13.85,0,0,1,344.81,96.1V79.35h48.09V53.2H344.81V29.06h56.66V0H315.81V53.2Z"/>
  <path d="M208.4,29.06h33.09V139h29V29.06h33.09V0H208.4V29.06Z"/>
  <path d="M101,42.9V139h29V97.11l37.17-9.38V139h29V0H143.88A42.87,42.87,0,0,0,101,42.9m66.18,18.68L130,71V42.9a13.86,13.86,0,0,1,13.83-13.85h23.34V61.58h0Z"/>
  <path d="M512,46.52A46.41,46.41,0,0,0,484.4,4.09,44.65,44.65,0,0,0,466.15.31H417V138.9h29V92.73h19.94c1.48,0,2.95-.08,4.39-0.22l15.67,46.38H512L493.32,83.6A46.15,46.15,0,0,0,512,46.52m-46.13,17.2H445.93V29.32h20l1.19,0.09a17.18,17.18,0,0,1-1.27,34.31"/>
</svg>
