<svg xmlns="http://www.w3.org/2000/svg" viewBox="0 0 512 66">
  <title>Food and Wine Magazine</title>
  <path d="M38.06,27.54V39.81H14.76V64.74H0V1.26H42.07V13.52H14.49v14H38.06ZM378.56,1.26H393V64.74H378.56V1.26Zm41.29,0,24.7,40.11V1.26h13.84V64.69H444.84L419.31,24.63V64.69H405.47V1.26h14.38ZM507,26.87V38.21H483.3V52.48H512V64.74H468.82V1.26H511V13.52H483.3V26.87H507ZM74.88,12.26c9.38,0,14,8.12,14,20.74s-4.62,20.74-14,20.74-14-8.12-14-20.74,4.65-20.74,14-20.74M45.88,33c0,18,8.57,33,29,33s29-15,29-33S95.3,0,74.88,0s-29,15-29,33M188.64,13.52h3.15c13.3,0,19.14,5,19.14,19.48s-5.84,19.48-19.14,19.48h-3.15v-39ZM174.15,64.74h16c21.94,0,35.42-9.18,35.42-31.74S212.12,1.26,190.18,1.26h-16V64.74h0ZM301.81,1.26l10.62,42.66L324.89,1.26h11.22l12,42.66L358.34,1.26h13.85L354.85,64.69H342.47L329.84,25,317.39,64.69H304.54L287.68,1.26h14.13Zm-162.9,11c9.38,0,14,8.12,14,20.74s-4.62,20.74-14,20.74-14-8.12-14-20.74,4.65-20.74,14-20.74M109.91,33c0,18,8.57,33,29,33s29-15,29-33-8.58-33-29-33-29,15-29,33M255.35,62.21a17.35,17.35,0,0,0,11.72-4.38c-3.78-3.13-10.26-9.31-12-11.14A110.71,110.71,0,0,1,247.6,38a12,12,0,0,0-5.27,10.45c0,8.17,5.84,13.72,13,13.72M253,66c-12.91,0-17.29-8.75-17.29-14.43,0-7.64,5.91-13.17,10.49-15.61a14.37,14.37,0,0,1-3.32-9.15c0-5.16,5-12,15.2-12a19.89,19.89,0,0,1,8,1.5,1.43,1.43,0,0,1,1,1.66,75.28,75.28,0,0,1-.6,8c-0.17,1-.4,1.11-0.73,1.11s-0.43-.26-0.43-1.24a8.08,8.08,0,0,0-2-5.52,9.19,9.19,0,0,0-7-2.91,7.51,7.51,0,0,0-7.77,8c0,5.61,4.65,10.35,10.75,16.92,2.26,2.49,10.42,9.86,12.11,11.31a19.59,19.59,0,0,0,3.29-10.45,4.07,4.07,0,0,0-1.26-3.1,4.88,4.88,0,0,0-3.25-1,0.65,0.65,0,0,1-.79-0.46v0c0-.43.53-0.56,1.06-0.56a73.89,73.89,0,0,1,8,.46c1.13,0.13,1.73.59,1.73,1.3,0,5.16-3.19,11.49-6.54,15.45a62.65,62.65,0,0,0,9.19,6.44,18.94,18.94,0,0,0,7.5,2.42c0.6,0,.93.06,0.93,0.52s-0.53.53-1.56,0.53H284c-6.24,0-8.23-.59-14.74-5.58A22.06,22.06,0,0,1,253.09,66"/>
</svg>
