<svg xmlns="http://www.w3.org/2000/svg" viewBox="0 0 512 72">
  <title>New York Times</title>
  <path d="M30,0a2.8,2.8,0,0,0-1.41.44c1.87,0.37,4.06.62,5.24,2.32a1.52,1.52,0,0,1-.18,2.14A4.65,4.65,0,0,1,29,6.22C23.43,4.91,18.17,2.36,12.45,1.7A10,10,0,0,0,4.28,4.89,9,9,0,0,0,2,12.49c0.43,2.12,2,4.32,4.28,4.63a4.22,4.22,0,0,1-.21-5.52,3.56,3.56,0,0,1,3.36-.93c4.43,0.82,8.75,2.15,13.17,3,2.47,0.67,4.92,1.47,7.45,1.93q0.07,4.53,0,9c-1.63,1.22-3.19,2.53-4.79,3.78,1.56,1.16,3.17,2.26,4.78,3.35,0.1,4.27,0,8.53.06,12.8-2.64,2-6.17,2.36-9.38,2-3.41-.19-6.43-2.22-8.67-4.68,3.74-2,7.56-3.87,11.38-5.7,0.13-6.73,0-13.46.06-20.19-4.78,2-9.52,4.11-14.29,6.14a15.62,15.62,0,0,1,7.53-8.06,7,7,0,0,0-2.6.37A22.69,22.69,0,0,0,.78,28.74a20.13,20.13,0,0,0,.53,12.62A20.43,20.43,0,0,0,10.57,52a17.72,17.72,0,0,0,7.75,2.44,19.07,19.07,0,0,0,15.56-6,18.22,18.22,0,0,0,3.36-6.42,19.47,19.47,0,0,0,1-7,25.91,25.91,0,0,1-7.66,9.51c0-4.25,0-8.5,0-12.75,1.46-1.11,2.92-2.22,4.33-3.39l-4.33-3.84c0-3,0-6,0-9,3.26-.17,7-1.89,7.89-5.3,0.61-2.23.93-4.87-.44-6.88a8.7,8.7,0,0,0-4.81-3A25.16,25.16,0,0,0,30,0ZM14.77,20.51c0,6.48,0,13,0,19.44-1.08.42-2.15,0.89-3.22,1.36a23.66,23.66,0,0,1-3.75-9.57,21.2,21.2,0,0,1,1.38-8.45C11,22.38,12.89,21.42,14.77,20.51Z"/>
  <path d="M388.8,0a2.38,2.38,0,0,0-1.52.44,14.33,14.33,0,0,1,3.3.88,3.84,3.84,0,0,1,1.84,2.29,2.28,2.28,0,0,1-1.47,2.34,7.44,7.44,0,0,1-5.06,0c-3.92-1.2-7.74-2.75-11.74-3.68a13.64,13.64,0,0,0-6.29-.31A10,10,0,0,0,362,5.63a8.6,8.6,0,0,0-1.09,7.85c0.69,1.73,2.09,3.44,4.06,3.66-0.64-.83-1.75-1.66-1.43-2.83a4.89,4.89,0,0,1,1.6-3.11,3.78,3.78,0,0,1,3.31-.38c4,0.74,7.88,1.86,11.82,2.79,2.67,0.57,5.23,1.56,7.92,2.06,0,3,0,6,0,9-1.45,1.27-2.89,2.55-4.32,3.84,1.44,1.11,2.85,2.25,4.31,3.33,0,4.28,0,8.56,0,12.84a12.14,12.14,0,0,1-8.93,1.93c-3.39-.2-6.35-2.24-8.6-4.65a26.47,26.47,0,0,1,3-1.57c2.8-1.38,5.56-2.82,8.38-4.14,0.09-6.73,0-13.47,0-20.2-4.75,2-9.47,4.14-14.24,6.11A14.71,14.71,0,0,1,373,15.64a5.48,5.48,0,0,1,2.37-1.53,7.16,7.16,0,0,0-2.83.48c-6.72,2.71-12.45,8.63-13.72,15.91a23.31,23.31,0,0,0,1.16,11,21.11,21.11,0,0,0,8.37,10.09,25.24,25.24,0,0,0,5.8,2.61,21.19,21.19,0,0,0,14.37-2.48c2.81-2,5.43-4.5,6.61-7.79A22.68,22.68,0,0,0,397,35a26.88,26.88,0,0,0-1.43,2.5,23.94,23.94,0,0,1-6.27,7.05c0-4.26,0-8.53,0-12.79,1.45-1,2.8-2.2,4.26-3.24-1.34-1.39-2.86-2.59-4.29-3.88,0-3,0-6,0-9a8.92,8.92,0,0,0,7.14-3.89,8.39,8.39,0,0,0,0-8.5,7.76,7.76,0,0,0-5-2.87C390.58,0.38,389.67,0,388.8,0h0ZM373.42,20.5c0,6.47,0,12.93,0,19.4-1.11.46-2.2,0.95-3.3,1.41a21.57,21.57,0,0,1-3.48-7.45,16.38,16.38,0,0,1,1.12-10.57c1.9-.9,3.77-1.85,5.65-2.8h0Z"/>
  <path d="M145.68,2.16c1.83,3.19.68,7.52-2.06,9.81a22.79,22.79,0,0,1-5.53,2.32c0,13.05,0,26.11,0,39.16a0.7,0.7,0,0,1-1,.83c-1.11-.05-1.41-1.22-1.88-2-6.84-12.56-13.61-25.15-20.5-37.68-0.13,9.22,0,18.44-.06,27.66A14.52,14.52,0,0,1,123.24,47c1-.76,1.63-2.11,2.9-2.42a8.38,8.38,0,0,1-1.24,1.55l-7.39,8.19a7.11,7.11,0,0,0-4.57-3c-1.25,0-2.7,0-3.61,1a3.21,3.21,0,0,0-1,3.85c0.88,1.92,3.09,2.44,5,2.89a8.18,8.18,0,0,1-6.81-1.37,9,9,0,0,1-3.24-4.87,8.5,8.5,0,0,1,2.33-7.67,11.23,11.23,0,0,1,8.55-2.84c0.08-4,0-8,0-12-1.49-.24-3.51,0-4.2,1.53-0.4,1.26.54,2.31,1.48,3a5.6,5.6,0,0,1-3.28-1.32,9.48,9.48,0,0,1-2-4.19,5.91,5.91,0,0,1,1.9-5.54c1.74-1.34,4-1.53,6.17-1.48V13.79c-0.77-1.15-1.51-2.47-2.83-3.07a2.61,2.61,0,0,0-2.73.19c-1,.87-1.28,2.26-1.68,3.47-0.4-3-.1-6.32,2-8.64a7.14,7.14,0,0,1,10.57-.36,18.56,18.56,0,0,1,2.81,4.21c5.08,9,10.07,18.13,15.2,27.13,0-7.47,0-14.94,0-22.41-0.88-.34-1.86-0.33-2.76-0.64a10.3,10.3,0,0,1-4.3-2.68c-0.77.9-1.55,1.81-2.27,2.75l-0.67-.36c2.63-3.31,5.46-6.48,8.2-9.7a8.51,8.51,0,0,0,5.45,2.88,5.11,5.11,0,0,0,4.58-4.38h0Z"/>
  <path d="M316.62,9.39c3.67-2.39,7.34-4.8,11-7.17,0,14.1,0,28.21,0,42.31a26.17,26.17,0,0,0,2.85,2.92c0.61-.65,1.24-1.27,1.86-1.9L333,46.14c-2.94,2.55-5.79,5.19-8.75,7.71-1.86-1.91-3.79-3.75-5.64-5.67-0.83.74-1.59,1.54-2.37,2.33L315.57,50c1.41-1.35,2.92-2.58,4.35-3.92,0-10.69,0-21.38,0-32.06C319.88,12,318.86,9.64,316.62,9.39Z"/>
  <path d="M42.24,9.8C45.4,7.45,48.5,5,51.67,2.67c0,7.77,0,15.54,0,23.31,2.68-2.21,5.38-4.39,8-6.62C61.84,21.56,63.83,23.9,66,26q1.39-1,2.84-1.89c-0.17,1.23-1.65,1.65-2.42,2.51,0,4.25,0,8.49,0,12.74,0.06,3.18-.4,6.33-0.49,9.5a12.69,12.69,0,0,1-4.17,9.22c-2.19,2-5.18,2.65-8,2.89l-0.21.28L53.63,61q-1.47,0-2.94-.11c1.23-.64,2.62-1,3.59-2.09,1.11-1.24,2.41-2.42,3-4a25,25,0,0,0,1-7.74c0-5.82,0-11.65,0-17.47-1.3-1.69-2.85-3.18-4.23-4.81a26.3,26.3,0,0,0-2.3,2.37c-0.05,6,0,12,0,18,0.78,0.78,1.56,1.56,2.35,2.33l1.89-1.9,0.56,0.55c-3.06,2.39-6.09,4.82-9.16,7.2-1.94-1.72-3.83-3.48-5.74-5.24l-1.92,1.43L39.11,49C40.58,48,42,47,43.48,46.07q0-16,0-32.05a5,5,0,0,0-.42-2.42,3.6,3.6,0,0,0-1.41-1.07c-0.11-.35.4-0.5,0.59-0.72h0Z"/>
  <path d="M253.14,4.13c-2.88,2.33-5.69,4.72-8.54,7.08,0-2.23,0-4.45,0-6.67a0.47,0.47,0,0,0-.57.6q0,23.59,0,47.18c-1.56-.3-3.11-0.61-4.65-1,0-13.27,0-26.53,0-39.8a7.34,7.34,0,0,0-1.68-4.65A8,8,0,0,0,232,4.4a9.16,9.16,0,0,0-6.45,2.89,6.59,6.59,0,0,0-2,6,4.77,4.77,0,0,1,1.86-3.58,3.31,3.31,0,0,1,4,1.15,6.35,6.35,0,0,1,.79,3.49c0,3.59,0,7.17,0,10.76-2.37,0-5.17.42-6.54,2.61a6,6,0,0,0-.86,6.17c0.62,2,2.7,3,4.64,3.35-1.08-.7-2.19-1.93-1.55-3.3,0.86-1.38,2.82-1.58,4.27-1.18,0.06,6.36,0,12.72,0,19.09a9.81,9.81,0,0,0-5.45,4.12,8.83,8.83,0,0,0,3.9,11.63,13.36,13.36,0,0,0,6.17.86c5.91-.35,11.52-2.69,17.45-2.89,1.76-.13,2.8,1.81,2.33,3.34A6.05,6.05,0,0,1,252,72a12.72,12.72,0,0,0,5.77-2.63,7.91,7.91,0,0,0,2.56-6.4c-0.14-2.32-2-4.05-4-5.05-2.57-1.5-5.67-1.17-8.5-.86-5.31.61-10.48,2.29-15.85,2.44a3.75,3.75,0,0,1-3.88-2.94c-0.41-1.71,1-3.21,2.4-4,3.06-1.44,6.57-.91,9.76-0.24,3.7,0.39,7.16,1.89,10.86,2.27a8.59,8.59,0,0,0,6.06-1.44A6.22,6.22,0,0,0,259.83,48c0-12.52,0-25,0-37.56a32.42,32.42,0,0,0,3.41-3c-1.4.35-2.27,1.65-3.41,2.45-2.26-1.87-4.47-3.8-6.7-5.7h0Zm-6.26,6.33c1.29,1.1,2.55,2.22,3.84,3.33,0,3.94,0,7.89,0,11.83A4,4,0,0,1,248.55,27a4.86,4.86,0,0,1-4-1.31q0-6.9,0-13.81c0.77-.46,1.53-0.92,2.29-1.39h0Zm-2.29,16.29a6.12,6.12,0,0,0,6.12,0c0,1.79,0,3.58,0,5.37A4,4,0,0,0,248,30.84a5.52,5.52,0,0,0-3.37,1.29c0-1.79,0-3.59,0-5.38h0Zm3.35,4.65a3.64,3.64,0,0,1,2.77,1.89c0,5,0,10,0,15A4.59,4.59,0,0,1,248.6,52a5.78,5.78,0,0,1-4,.84c-0.08-6.52,0-13,0-19.57A4.71,4.71,0,0,1,247.94,31.4Z"/>
  <path d="M398.7,12.27c2-1.74,3.85-3.6,5.88-5.29,1.71,1.81,3.52,3.52,5.26,5.3q-3.14,2.93-6.31,5.81c-1.6-2-3.25-3.86-4.83-5.83h0Z"/>
  <path d="M169.68,14.13c1.24-.85,2.81-0.8,4.24-1-1.08.85-2.28,1.84-2.43,3.31a3.59,3.59,0,0,0,1.56,3.29c1.77,1.41,4,2.2,5.48,4a4.85,4.85,0,0,1,1.08,3.1c0,5.93,0,11.86,0,17.78l4.74,3.81,1.38-.89c0-6.47,0-12.94,0-19.41a31.08,31.08,0,0,0-2.86-2.49c2.28-2.09,4.51-4.24,6.83-6.28,2,2,4.15,3.85,6.22,5.78-0.79.83-1.6,1.64-2.43,2.43,0,5.69,0,11.38,0,17.06,2.07,1.6,4.14,3.21,6.23,4.78l0.89-.51c0-6.95,0-13.89,0-20.84-1-.82-2-1.6-2.9-2.43,2.24-2.11,4.5-4.18,6.75-6.27q3.36,2.62,6.71,5.26a25.87,25.87,0,0,1,2.44-2.44L214,22.85c-1.9,1.69-3.8,3.41-5.64,5.17-0.16,5.54,0,11.1-.08,16.64-4.85,3.18-9.91,6.08-14.83,9.17-2.59-1.86-5.11-3.81-7.67-5.71-2.3,1.84-4.6,3.69-6.91,5.51-0.33.37-.67-0.17-0.94-0.32-2.16-1.73-4.31-3.48-6.5-5.17-0.92.8-1.88,1.55-2.8,2.35l-0.58-.56c1.12-.78,2.22-1.59,3.35-2.37q0-8.06,0-16.11a5.88,5.88,0,0,0-1.49-4c-1.08-1.17-2.54-2-3.4-3.37a7.55,7.55,0,0,1-.67-5.35,8.44,8.44,0,0,1,3.84-4.65h0Z"/>
  <path d="M510.48,18a2.15,2.15,0,0,1,0,1.75c-0.68,1.54-2.52,2.14-4.09,2.11s-2.92-1.32-4-2.44l-5.57,3.71a39.16,39.16,0,0,1-6.87,3.48c0,3,0,6.07,0,9.11,1.73,1.44,3.51,2.82,5.21,4.29-1.3,1.38-2.58,2.77-3.81,4.21a9.12,9.12,0,0,0-2.53,5.3,6.78,6.78,0,0,0,3,6,3.59,3.59,0,0,0,3.06.6c-1.31-.47-2.92-1.42-2.81-3A3,3,0,0,1,495.67,51a7.81,7.81,0,0,1,3.81,2.78A101,101,0,0,1,512,46.16c0-3.85.05-7.72,0-11.57-1.92-1.34-3.75-2.81-5.65-4.18,2-2.54,4-5.23,4.87-8.41,0.31-1.34.42-3-.7-4h0Zm-12.8,5.78c1.29,1.85,3,3.65,5.34,4,2.33,0.55,4.59-.71,6.12-2.39-2.09,3.86-5.34,7-8.69,9.73-0.91-1-1.88-1.85-2.78-2.82,0-2.85,0-5.7,0-8.55h0ZM501,35.26c1,0.84,2,1.7,3,2.55,0.46,0.28.23,0.85,0.3,1.28,0,3.31,0,6.63,0,9.94a9.49,9.49,0,0,0-3.46-4.27,7.41,7.41,0,0,0-7.8-.13A11,11,0,0,0,490.22,47a25,25,0,0,1,4.8-5.84C497,39.24,499.05,37.3,501,35.26Z"/>
  <path d="M87.46,19.37c-2.65,1.53-5.2,3.2-7.79,4.81-2.2,1.14-4.43,2.22-6.64,3.33,0,6.19,0,12.38,0,18.57a31.19,31.19,0,0,0-2.9,2.09l0.66,0.4a23.94,23.94,0,0,1,2.29-1.83c2.74,2.27,5.33,4.74,8.06,7l0.54-.28C86.33,49.9,91,46.37,95.64,42.79l-0.57-.5c-2.58,2-5.09,4.12-7.64,6.15-2.11-1.9-4.15-3.86-6.25-5.77-0.72-.52-0.32-1.51-0.37-2.25,4.32-3.16,8.64-6.32,12.9-9.56C91.58,27,89.52,23.21,87.46,19.37Zm-6.68,4.56c2.19,3.59,4.38,7.16,6.55,10.76Q84,37,80.78,39.37c0-5.14,0-10.29,0-15.44h0Z"/>
  <path d="M159.07,19.37c-1.86,1.23-3.74,2.44-5.65,3.59-2.79,1.74-5.81,3.05-8.73,4.55,0,6.19,0,12.37,0,18.56-0.9.67-1.9,1.2-2.77,1.9l0.38,0.65c1-.65,1.93-1.32,2.92-1.93,2.51,2.39,5.05,4.75,7.58,7.12,4.72-3.5,9.36-7.13,14-10.7,0.6-.12.11-1.09-0.28-0.72-2.54,2-5,4-7.49,6q-2.94-2.91-5.86-5.84c-0.63-.55-0.26-1.48-0.29-2.2,4.16-3.08,8.19-6.34,12.36-9.41C163.36,27,161.11,23.25,159.07,19.37Zm-6.2,4.69C155,27.54,157,31.14,159,34.73c-2,1.49-4,3.08-6,4.6C152.82,34.24,152.92,29.15,152.87,24.06Z"/>
  <path d="M279.86,19.38c-2,1.19-4.06,2.41-6,3.7a65.3,65.3,0,0,1-7.36,3.54c0.06,6.49,0,13,0,19.48-0.83.83-1.67,1.65-2.47,2.49l0.67,0c0.59-.63,1.2-1.24,1.81-1.85,2.78,2.27,5.53,4.6,8.29,6.89,0.46,0.44,1-.22,1.42-0.37,4.45-2.43,8.65-5.29,13.23-7.47,0.07-6,0-12.1,0-18.15,0.83-.83,1.66-1.65,2.47-2.49l-0.65,0c-0.77.63-1.55,1.25-2.33,1.87-3-2.54-6-5.09-9.09-7.62h0Zm-5.18,4.49c2.19,2.05,4.41,4.07,6.6,6.13,0,6.44,0,12.88,0,19.32-2.24-2-4.37-4-6.58-6V23.87h0Z"/>
  <path d="M328,33.81c3.15-4.83,6.38-9.62,9.61-14.41a9.09,9.09,0,0,0,5,2.11,7.81,7.81,0,0,0,4.66-2.12A11.39,11.39,0,0,1,344,26.52a6.64,6.64,0,0,1-6.6,1.2,12.07,12.07,0,0,1-3.57-2,8.77,8.77,0,0,0-.46,1.38c4.48,6.73,8.87,13.52,13.27,20.31a22.62,22.62,0,0,0,2.79-2.28l0.7,0.44c-3.16,2.82-6.43,5.52-9.67,8.24-4.17-6.67-8.24-13.39-12.46-20h0Z"/>
  <path d="M479.48,19.37c-1.95,1.18-3.9,2.36-5.83,3.58-2.66,1.85-5.71,3-8.54,4.55,0,6.19,0,12.38,0,18.56-1,.64-1.94,1.3-2.91,1.93l0.51,0.62a30.88,30.88,0,0,1,2.5-1.9c2.53,2.34,5.17,4.56,7.73,6.87,0.24,0.39.6,0,.85-0.17q6.93-5.33,13.87-10.62c-0.54-.95-1.16,0-1.7.36q-3.26,2.65-6.51,5.28c-2.23-2-4.38-4.13-6.64-6.11a18.91,18.91,0,0,1,0-1.91c4.33-3.13,8.62-6.34,12.91-9.52q-3.11-5.78-6.25-11.53h0ZM472.8,24c2.34,3.46,4.4,7.11,6.6,10.67-2.23,1.53-4.4,3.14-6.61,4.68,0-5.11,0-10.23,0-15.34h0Z"/>
  <path d="M300.78,19.88c1.75,1.59,3.22,3.47,4.85,5.19,1.77-1.69,3.5-3.44,5.21-5.19,1.24,0.79,2.54,1.91,4.13,1.59,1.12-.08,1.71-1.18,2.66-1.63a10.09,10.09,0,0,1-2.09,6.61A6,6,0,0,1,308,27.74a29.63,29.63,0,0,1-2.37-1.82c0,6.39,0,12.79,0,19.18,1.26,1,2.53,1.93,3.82,2.86,0.94-.62,1.67-1.75,2.86-1.86-2.8,2.66-5.73,5.19-8.65,7.72-2.19-2.06-4.43-4.07-6.6-6.16-0.85.76-1.63,1.58-2.43,2.38l-0.51-.6c1.06-1.18,2.25-2.24,3.33-3.4,0-5.47,0-10.94,0-16.41a42.92,42.92,0,0,0-2.32-3.9c-1,.59-1.73,1.82-3,1.86C295,25,298,22.51,300.78,19.88h0Z"/>
  <path d="M414.41,26.72c2.61-2.28,5.16-4.61,7.78-6.87,1.88,2.07,3.82,4.08,5.67,6.18,2.77-2,5.43-4.14,8.17-6.18,1.92,2.05,3.8,4.14,5.74,6.18,2.72-2.05,5.4-4.15,8.13-6.18,1.87,2.08,3.79,4.1,5.68,6.16,1.16-.74,2.22-1.62,3.4-2.33,0.09,0.68-.54,1-1,1.38-0.63.51-1.24,1-1.87,1.54-0.05,5.69,0,11.38,0,17.07q1.63,1.69,3.33,3.31c0.6-.62,1.21-1.23,1.79-1.86l0.7,0.44c-2.86,2.81-5.8,5.53-8.74,8.26-2.07-2.44-4.23-4.79-6.25-7.27,0.49-.45,1-0.92,1.44-1.39q0-7.36,0-14.72c-1.56-1.74-3.12-3.48-4.73-5.18l-1.39,1.42c0,6.14,0,12.27,0,18.41,0.77,0.87,1.65,1.64,2.43,2.51-2.12,1.87-4.16,3.84-6.26,5.73q-2.95-3.09-5.8-6.27c0.54-.67,1.63-1.15,1.46-2.16,0-4.79,0-9.58,0-14.36a58.65,58.65,0,0,0-4.3-5.25c-0.44.47-.89,0.93-1.35,1.39,0,5.94,0,11.89,0,17.84a25.87,25.87,0,0,0,2.4,3c-2.05,2.15-4.18,4.25-6.32,6.32-2-2.43-4.16-4.8-6.23-7.22l1.94-1.49c0-5,0-10,0-15.07-1.21-1.49-2.53-2.89-3.8-4.32a16.16,16.16,0,0,1-2.72,2A1.33,1.33,0,0,1,414.41,26.72Z"/>
  <path d="M396.28,27.12c2.69-2.46,5.48-4.83,8.21-7.27,1.94,2.2,3.82,4.45,5.75,6.66a27.94,27.94,0,0,1,3-2.36,1.31,1.31,0,0,1-.51.91c-0.83.69-1.65,1.38-2.49,2,0,5.7,0,11.4,0,17.1,1.09,1.23,2.22,2.43,3.23,3.73,0.85-.52,1.56-1.22,2.36-1.8l0.69,0.36c-2.69,2.52-5.48,4.93-8.29,7.32-1.86-2.24-3.78-4.44-5.69-6.64a29.93,29.93,0,0,1-2.43,2.32L399.64,49c0.81-.76,1.57-1.58,2.39-2.34,0.06-5.18,0-10.36,0-15.54,0-.72.18-1.57-0.38-2.15-1-1.24-1.92-2.54-3-3.72a20.71,20.71,0,0,1-2.42,1.85h0Z"/>
</svg>
