<svg xmlns="http://www.w3.org/2000/svg" viewBox="0 0 512 72">
  <title>TechCrunch</title>
  <g opacity="0.5">
    <polygon points="0 0 0 24 24 24 24 72 48 72 48 24 72 24 72 0 0 0"/>
    <polygon points="96 48 96 24 72 24 72 72 144 72 144 48 96 48"/>
    <rect x="96" width="48" height="24"/>
    <path d="M192.45,28.21v32H180.78v-32H169V18h35.27V28.21H192.45Z"/>
    <path d="M231.5,47.47H213c0.36,3.49,2.41,5,5.36,5a16.49,16.49,0,0,0,8.18-2.23l4.15,6.92a24.52,24.52,0,0,1-12.88,3.61c-9.51,0-14.75-6.74-14.75-16.43,0-10.89,6.14-16.49,14.44-16.49,8.67,0,14.08,5.72,14.08,17.45A20.24,20.24,0,0,1,231.5,47.47ZM217.18,35.91c-2.47,0-3.85,1.68-4.21,4.81h9C221.45,37.54,220.37,35.91,217.18,35.91Z"/>
    <path d="M251.66,60.83c-9.27,0-14.8-5.9-14.8-16.55,0-9.69,4.94-16.37,15-16.37,6,0,9.39,2.77,12.16,7.22l-7.46,5.66c-1.5-2.77-2.53-4.09-4.87-4.09-2.77,0-4.15,2.77-4.15,7.76S249.07,52,252,52c2,0,3.49-1.14,5.48-4.09l6.86,5.36C260.69,58.72,257.25,60.83,251.66,60.83Z"/>
    <path d="M288.6,60.17V42.23c0-4.09-1.38-5.17-3.61-5.17s-3.67,1.08-3.67,5V60.17H270.49V20.63l10.83-4.33V30.68a12.08,12.08,0,0,1,7.94-2.77c6.92,0,10.23,4.63,10.23,12.94V60.17H288.6Z"/>
  </g>
  <path d="M325.42,60.83c-12.52,0-19.2-9.27-19.2-21.73,0-13.54,7.94-21.73,19.26-21.73,10.35,0,14.45,4.45,17.33,12.4l-10.59,4.15c-1.51-3.91-3-6.38-6.8-6.38-4.87,0-7,4.87-7,11.55,0,6.44,2,11.55,7.1,11.55,3.67,0,5.24-2,7.52-6l9.87,5.24C340.11,55.47,335.41,60.83,325.42,60.83Z"/>
  <path d="M369.58,40.49a6.82,6.82,0,0,0-5-2.65c-2.65,0-4.27,1.26-4.27,5.11V60.17H349.42V28.57h10.83v2.29a9.69,9.69,0,0,1,11.86-1.62Z"/>
  <path d="M395.34,60.17V58.06a11.91,11.91,0,0,1-7.88,2.77c-6.92,0-10.23-4.63-10.23-12.94V28.57h10.89V46.51c0,4.09,1.38,5.17,3.61,5.17s3.61-1.08,3.61-5.06v-18h10.89v31.6H395.34Z"/>
  <path d="M432.16,60.17V42.23c0-4.09-1.38-5.17-3.61-5.17s-3.67,1.08-3.67,5V60.17H414V28.57h10.83v2.11a12.08,12.08,0,0,1,7.94-2.77c6.92,0,10.23,4.63,10.23,12.94V60.17H432.16Z"/>
  <path d="M464.16,60.83c-9.27,0-14.8-5.9-14.8-16.55,0-9.69,4.94-16.37,15-16.37,6,0,9.39,2.77,12.16,7.22l-7.46,5.66c-1.5-2.77-2.53-4.09-4.87-4.09-2.77,0-4.15,2.77-4.15,7.76s1.5,7.58,4.45,7.58c2,0,3.49-1.14,5.48-4.09l6.86,5.36C473.19,58.72,469.76,60.83,464.16,60.83Z"/>
  <path d="M501.11,60.17V42.23c0-4.09-1.38-5.17-3.61-5.17s-3.67,1.08-3.67,5V60.17H483V20.63l10.83-4.33V30.68a12.08,12.08,0,0,1,7.94-2.77c6.92,0,10.23,4.63,10.23,12.94V60.17H501.11Z"/>
</svg>
