<svg xmlns="http://www.w3.org/2000/svg" viewBox="0 0 512 88">
  <title>TheKitchn</title>
  <g opacity="0.3">
    <path d="M0,46.5C0,19.47,20.61,3.92,38.7.8,47.45-.71,56-0.2,64.24,3.29,75.07,7.87,81.54,16.17,84.46,27.34c3.67,14,1.92,27.43-6.18,39.54-6.44,9.63-16,15.32-26.94,18.72-8,2.48-16.06,3.33-24.25,1.17C15.54,83.72,8,76.22,3.58,65.39A50.07,50.07,0,0,1,0,46.5ZM47.12,7.86c-3,.38-6.07.52-9,1.19-23.88,5.44-38.93,32.59-25,57.61,5.16,9.25,13.5,13.93,24.33,13.16a52.1,52.1,0,0,0,12.14-2.12c11.68-3.75,21.08-10.47,25.75-22.27,4-10.19,3.73-20.48-.27-30.66A24.77,24.77,0,0,0,59.69,10.05,43.54,43.54,0,0,0,47.12,7.86Z"/>
    <path d="M74.88,39.27c0,9.52-4.07,16.47-10.51,22.45-9.07,8.42-27.47,11.1-39.2,1-6.4-5.52-9.4-12.49-8.82-20.83,0.72-10.34,5.05-19.1,13.86-24.7,12.45-7.92,29.91-7.46,40.26,7.4A25.79,25.79,0,0,1,74.88,39.27ZM66.95,40c0-.74,0-1.48-0.12-2.2C65.21,25.6,54.29,18,42.25,20.74,33,22.81,26.06,30.57,24.6,40.5A17.88,17.88,0,0,0,37.5,60.59a23.23,23.23,0,0,0,15.18-1C61.36,56.16,66.92,48.49,66.95,40Z"/>
    <path d="M48.31,23.38c8.83,0,16.09,9.23,13.59,17.22A16.47,16.47,0,0,1,45.75,51.78,12.91,12.91,0,0,1,33.64,41.44C32,33.1,38.91,23.2,48.31,23.38ZM46.4,44a8.36,8.36,0,0,0,7.43-5,5.21,5.21,0,0,0,.23-2.78,6.23,6.23,0,0,0-9.65-3.46,7.36,7.36,0,0,0-2.91,6.1A5,5,0,0,0,46.4,44Z"/>
  </g>
  <path d="M512,83.78a3.26,3.26,0,0,1-3.24,1.41c-0.78-.07-1.56,0-2.35,0-1.74,0-2.54-.83-2.55-2.57,0-4.59,0-9.19,0-13.78,0-3.51,0-7,0-10.53-0.11-9.47-7.28-14.87-16.46-12.42-5.93,1.59-9,5.59-9,11.73q0,12.22,0,24.44c0,2.45-.69,3.13-3.19,3.13-0.78,0-1.56,0-2.35,0a2.29,2.29,0,0,1-2.53-2.49c0-.22,0-0.43,0-0.65q0-20.08,0-40.17c0-2.54.69-3.23,3.25-3.24,0.65,0,1.3,0,2,0,2,0,2.82.82,2.86,2.84,0,0.41,0,.82.08,1.55a15.77,15.77,0,0,0,1.34-.9c5.92-5.09,12.68-5.72,19.8-3.41,6.84,2.22,10.5,7.33,11.9,14.2L512,55.44V83.78Z"/>
  <path d="M426.11,42.89c0.36-.28.74-0.54,1.09-0.83,5.9-5,12.63-5.62,19.7-3.34,6.79,2.19,10.5,7.25,11.87,14.07a31.5,31.5,0,0,1,.54,5.93c0.06,7.84,0,15.68,0,23.53,0,2.21-.74,2.93-3,2.94-0.83,0-1.65,0-2.48,0-1.91,0-2.67-.79-2.67-2.7,0-7.71,0-15.42,0-23.14a22.73,22.73,0,0,0-.55-5.15,11.62,11.62,0,0,0-13.08-8.81,21.15,21.15,0,0,0-3.44.7c-5.48,1.64-8.4,5.55-8.42,11.25,0,8.28,0,16.55,0,24.83,0,2.3-.72,3-3,3-0.91,0-1.83,0-2.74,0a2.24,2.24,0,0,1-2.28-2.33c0-.3,0-0.61,0-0.91q0-30.48,0-61c0-2.56.68-3.23,3.23-3.24h1.43c2.77,0,3.4.62,3.4,3.33q0,10.07,0,20.15V42.7Z"/>
  <path d="M155.06,43c0.59-.43,1-0.67,1.32-1,6.08-5.15,13-5.72,20.19-3.2,6.9,2.41,10.41,7.77,11.57,14.77a33.53,33.53,0,0,1,.39,5.3c0,7.67,0,15.34,0,23,0,2.6-.63,3.22-3.23,3.22h-1.83c-2.41,0-3.13-.71-3.13-3.08q0-6,0-12c0-3.86,0-7.71,0-11.57a19.27,19.27,0,0,0-.4-4c-1.56-6.87-7.83-10.54-15.11-8.9-5,1.12-8.6,3.68-9.65,9a19.62,19.62,0,0,0-.29,3.75c0,7.89,0,15.77,0,23.66,0,2.5-.65,3.13-3.17,3.14-0.87,0-1.74,0-2.61,0a2.17,2.17,0,0,1-2.23-2.23c0-.39,0-0.78,0-1.17q0-30.29,0-60.59c0-2.9.57-3.45,3.53-3.45,4.33,0,4.5.17,4.5,4.43q0,9.49,0,19C154.89,41.68,155,42.22,155.06,43Z"/>
  <path d="M266.85,51.35q0-15.27,0-30.54c0-2.39.69-3.07,3.1-3.07,0.83,0,1.65,0,2.48,0a2.31,2.31,0,0,1,2.45,2.32c0,0.39,0,.78,0,1.17q0,15.79,0,31.58a5.71,5.71,0,0,0,0,1c0.1,0.53.27,1,.42,1.57a6.23,6.23,0,0,0,1.45-.66q9-7.33,17.9-14.71a5.26,5.26,0,0,1,3.8-1.37c1.56,0.08,3.13,0,4.69,0,0.82,0,1.73-.08,2.06.93a2,2,0,0,1-.9,2.36q-7.75,6.15-15.46,12.34c-1.53,1.22-3.06,2.43-4.58,3.66s-1.39,1.47-.08,2.64l19.11,17.1c1.58,1.42,3.15,2.85,4.76,4.25,0.74,0.64,1.21,1.47.69,2.26a2.78,2.78,0,0,1-1.93.91c-1.73.13-3.47,0-5.21,0.06a4.85,4.85,0,0,1-3.73-1.49q-10.54-10.07-21.13-20.08a9.85,9.85,0,0,0-.77-0.7c-0.57-.44-1-0.33-1.06.42a9.65,9.65,0,0,0,0,1.17q0,8.77,0,17.55c0,2.41-.7,3.11-3.09,3.12-0.78,0-1.56,0-2.35,0-1.82,0-2.6-.81-2.61-2.64q0-9.88,0-19.76Q266.85,57.07,266.85,51.35Z"/>
  <path d="M221.92,63.94H206.8c-2.12,0-2.34.28-1.87,2.33,1.65,7.25,9.1,15,19.82,12.15a42.62,42.62,0,0,0,7.37-3.16c1.89-.91,2.1-1,3.32.68,0.54,0.73,1.1,1.45,1.63,2.19,0.89,1.24.83,1.76-.39,2.73a24.69,24.69,0,0,1-9,4.34c-5.57,1.52-11.16,1.81-16.64-.29-7.75-3-12.16-8.86-13.86-16.78-1.8-8.4-.46-16.28,5.19-23,5.45-6.47,12.69-8.62,20.87-7.27,7.72,1.27,13,5.76,15.82,13.11a22.52,22.52,0,0,1,1.15,10.62c-0.19,1.65-1,2.32-2.7,2.33C232.35,64,227.14,63.94,221.92,63.94Zm-3.39-6.53h12.12c1.62,0,1.84-.26,1.51-1.84A13.74,13.74,0,0,0,228,48.1c-7.61-7-20.42-2.81-22.93,7.53-0.37,1.52-.19,1.78,1.36,1.79h12.12Z"/>
  <path d="M368.84,63.82c0-15.54,11.39-26.75,25-26.28a19.83,19.83,0,0,1,15.48,7.88,2.27,2.27,0,0,1-.3,3.53c-0.81.72-1.66,1.4-2.49,2.1a1.58,1.58,0,0,1-2.41-.08c-0.67-.68-1.33-1.38-2-2a14.63,14.63,0,0,0-18.6-.34c-8.38,6.59-8.24,20.61.27,27a14.81,14.81,0,0,0,18.92-.81c0.87-.79,1.69-1.62,2.53-2.44a2.14,2.14,0,0,1,2.93-.29c3.38,2.11,3.59,3.22,1.12,6.34-6.23,7.9-17.5,10.25-27,5.42C373.33,79.38,369.17,71.84,368.84,63.82Z"/>
  <path d="M340.11,61.41q0-6.69,0-13.39c0-2-.42-2.36-2.37-2.36-1.17,0-2.35,0-3.52,0a2.16,2.16,0,0,1-2.28-2.18c0-.09,0-0.17,0-0.26-0.07-3.76-.06-4.64,4.24-4.53,4,0.1,4,0,4-3.91,0-3.08,0-6.15,0-9.23,0-1.9.86-2.75,2.79-2.8,0.87,0,1.74,0,2.61,0,1.8,0,2.61.82,2.62,2.65,0,3.6,0,7.19,0,10.79,0,2.13.37,2.51,2.49,2.52,3.48,0,7,0,10.43,0,2.11,0,2.79.71,2.81,2.82,0,3.82-.29,4.14-4.12,4.14h-9.25c-1.92,0-2.35.41-2.35,2.26q0,12.28,0,24.57a7.73,7.73,0,0,0,.19,1.8c0.89,3.66,3.48,5.21,7.31,4.14A15.73,15.73,0,0,0,360,76.24c1.67-1.12,2.38-1.09,3.43.65,0.61,1,1.2,2,1.77,3a1.49,1.49,0,0,1-.45,2.07c-4.77,3.74-10,5.42-16.08,3.77a11.08,11.08,0,0,1-8.51-10.7c-0.14-4.54,0-9.1,0-13.65h-0.05Z"/>
  <path d="M114.18,60.93q0-6.5,0-13c0-1.9-.38-2.26-2.31-2.27-1.17,0-2.35,0-3.52,0A2.14,2.14,0,0,1,106,43.37c-0.08-3.78-.28-4.83,4.32-4.7,3.83,0.11,3.84,0,3.84-3.75,0-3.12,0-6.24,0-9.36,0-1.9.88-2.78,2.78-2.83,0.87,0,1.74,0,2.61,0,1.83,0,2.62.8,2.63,2.62,0,3.6,0,7.19,0,10.79,0,2.16.4,2.55,2.61,2.55,3.43,0,6.86,0,10.3,0,2.14,0,2.8.67,2.83,2.79,0.06,3.86-.25,4.17-4.07,4.18-3.13,0-6.26,0-9.38,0-1.79,0-2.27.49-2.27,2.23,0,8.23,0,16.46,0,24.69,0,4.62,3.17,7.08,7.61,5.82a16.42,16.42,0,0,0,4.35-2.21c1.57-1,2.32-1,3.28.56,0.61,1,1.21,2,1.78,3a1.56,1.56,0,0,1-.36,2.2c-4.81,3.77-10.12,5.46-16.19,3.76-5.45-1.53-8.47-5.81-8.52-12.07C114.15,69.42,114.18,65.17,114.18,60.93Z"/>
  <path d="M315.9,61.9q0-10.14,0-20.27c0-2.21.73-2.92,3-2.94,0.91,0,1.83,0,2.74,0A2.26,2.26,0,0,1,323.95,41c0,0.3,0,.61,0,0.91q0,20,0,40c0,2.58-.66,3.25-3.2,3.26h-2.08c-2,0-2.76-.78-2.77-2.75Q315.89,72.17,315.9,61.9Z"/>
  <path d="M319.72,28.71a5.37,5.37,0,0,1-5.43-5.44A5.52,5.52,0,1,1,319.72,28.71Z"/>
</svg>
