<svg xmlns="http://www.w3.org/2000/svg" viewBox="0 0 512 43">
  <title>Wall Street Journal</title>
  <path d="M509.27,37.09A2.9,2.9,0,1,0,512,40.17q0-.1,0-0.19a2.79,2.79,0,0,0-2.68-2.89h0m-98.82,5.59H423V41.58l-1.36-.31c-1.24-.31-1.8-1-1.8-2.71V21.84h2.92c1.8,0,2.73.43,2.86,4.18l0.31,7.87c0.25,7.07,2.3,9,5.78,9s4.5-2.4,4.5-5.79V35.74H434.9v1c0,2.28-.31,3.88-1.18,3.88s-0.87-.64-1.05-3.44l-0.43-5.39c-0.49-7.26-1.43-9.78-6.83-10.76,5.14-1.36,8.35-5.09,8.35-10.46,0-7-5.52-10.27-10.8-10.27H401.76V1.41l1.18,0.25c2.23,0.49,2.29,1.66,2.29,6.61V32.78c0,5.47-1.55,8.12-5.09,8.12-3.17,0-4.9-1.54-4.9-7.5V4.31c0-1.72.56-2.21,1.93-2.55l1.68-.37V0.31h-13V1.41l1.38,0.37c1.24,0.37,1.68.86,1.68,2.58V33c0,6.46,3.79,10,9.56,10s8.62-3.57,8.62-10.18V6.09c0-3.32.69-4.49,3.42-4.49,2.17,0,3.11.74,3.11,2.77v34.2c0,1.72-.56,2.34-1.8,2.65l-1.37.37v1.11h0ZM493.75,4.37c0-1.72.56-2.28,1.8-2.55l1.68-.37V0.31H484.31V1.41l1.37,0.37c1.24,0.37,1.8.86,1.8,2.58V38.82c0,1.65-.69,2.55-2.61,2.55-2.23,0-2.57-.74-3.35-4.37L473.57,0.18h-2.49l-7.57,35.67c-0.87,4-1.28,4.92-3,5.42l-1.05.31v1.11h8.88V41.58l-1.28-.25c-1.86-.37-2.36-1.35-1.43-6l4.5-22.82L475,36.67c0.74,3.51.69,4.18-2,4.67l-1.28.25v1.11h32.89V28.64h-1.18c-0.64,6.46-1.93,12.55-7.2,12.55H493.8V4.37h-0.06ZM474.38,31.25V29.59H466l-0.25,1.66h8.6ZM439.75,5.09V34.5c0,4.46,0,6.52-2.23,6.89l-1.12.18v1.11h9.13v-1.1c-4-.55-4-1.91-4-6.7V7l-1.49-1.36,15.21,37.09h2.62V8.49c0-5,0-6.15,2.49-6.83l0.87-.25V0.31h-9.4V1.41l1.05,0.25c3.17,0.55,3.17,1.78,3.17,6.46v21.4l0.64-.18-11.56-29h-8.88V1.41l0.87,0.25c1,0.31,1.55,1.41,2.61,3.44M419.83,1.78h2.49c2.48,0,4.78,1.6,4.78,9.6,0,8.18-1.75,9-5.23,9h-2V1.78h0ZM378.49,21.1c0,17.78-1.52,20.27-4.73,20.27s-4.66-2.55-4.66-20.18c0-17.1,1.55-19.56,4.66-19.56s4.72,2.46,4.72,19.44m6.76,0.37C385.25,9.72,381.47,0,373.76,0s-11.42,9.72-11.42,21.47S366.13,43,373.76,43c7.89,0,11.48-9.72,11.48-21.53M358.69,4.37c0-1.72.44-2.28,1.68-2.58l1.37-.37V0.31H348.89V1.41l1.55,0.37c1.24,0.31,1.93.74,1.93,2.55V33.89c0,4.12-.37,7.44-3.47,7.44-2,0-3.47-1.54-3.42-2.65,0.19-1.91,3.42-1.78,3.66-4.86a2.84,2.84,0,0,0-2.57-3.32c-1.93-.25-4.28,1.36-4.35,4.55-0.06,4.12,2.67,7.87,7.33,7.87,5.14,0,9.13-3.44,9.13-10V4.37h0Zm-207.3,0c0-1.72.56-2.28,1.8-2.55l1.68-.37V0.31H141.93V1.41l1.37,0.37c1.24,0.37,1.8.86,1.8,2.58V38.82c0,1.66-.68,2.58-2.61,2.58-2.23,0-2.61-.74-3.42-4.37L131.15,0.18h-2.48l-7.58,35.67c-0.87,4-1.28,4.92-3,5.42l-1.05.31v1.11h8.88V41.58l-1.28-.25c-1.86-.37-2.36-1.35-1.43-6l4.5-22.91,4.91,24.3c0.68,3.51.68,4.18-2,4.67l-1.28.25v1.11h33V28.64h-1.25c-0.64,6.46-1.93,12.55-7.2,12.55h-2.49V4.37h0ZM324.18,1.78h1.37c3.85,0,5.14,6.09,5.59,12.55h1.18v-14H309.78v14H311c0.44-6.46,1.74-12.55,5.59-12.55h1.34V38.57c0,1.72-.56,2.34-1.8,2.65l-1.61.37v1.11h13.41V41.58L326,41.15c-1.18-.31-1.8-0.67-1.8-2.58V1.78h0ZM295.81,21.4l1.93,0.06c2.79,0.06,3.6,1.11,4.16,7.82h1.18V12.18H301.9c-0.69,5.35-1.43,7.64-4.1,7.69l-2,.06V1.78h4.28c4.78,0,5.84,6,6.52,12.55h1.18v-14H286.38V1.41l1.37,0.37c1.43,0.37,1.8,1.23,1.8,2.65V38.57c0,1.72-.56,2.34-1.8,2.65l-1.37.37v1.11h22V28.64h-1.18c-0.74,6.4-1.55,12.55-7.13,12.55h-4.28V21.4h0Zm-23.4,0,1.93,0.06c2.79,0.06,3.6,1.11,4.16,7.82h1.18V12.18H278.5c-0.68,5.35-1.43,7.64-4.1,7.69l-2,.06V1.78h4.28c4.78,0,5.83,6.09,6.52,12.55h1.18v-14h-22V1.41l2,0.37c1.43,0.37,1.8,1.23,1.8,2.65V38.57c0,1.72-.56,2.34-1.8,2.65l-1.37.37v1.11h22V28.64h-1.16c-0.74,6.4-1.55,12.55-7.13,12.55h-4.28V21.4h0ZM246.9,1.78h1.86c2.48,0,4.78,1.6,4.78,9.6s-1.73,9-5.21,9h-1.43V1.78h0Zm-9.37,40.91h12.54V41.58l-1.37-.31c-1.24-.31-1.8-1-1.8-2.71V21.84h2.27c1.8,0,2.73.74,2.86,4.18l0.35,7.87c0.25,7.07,2.3,9,5.78,9s4.5-2.4,4.5-5.79V35.74h-1.28v1c0,2.28-.31,3.88-1.18,3.88s-0.87-.64-1.05-3.44l-0.44-5.39c-0.49-7.45-1.49-9.78-6.83-10.76,5.14-1.36,8.35-5.09,8.35-10.46,0-7-5.52-10.27-10.8-10.27H237.53V1.41l1.37,0.37c1.24,0.37,1.8.86,1.8,2.58v34.2c0,1.72-.56,2.34-1.8,2.65l-1.37.37v1.11h0ZM228,1.78h1.37c3.85,0,5.14,6.09,5.59,12.55h1.18v-14H213.64v14h1.18c0.44-6.46,1.74-12.55,5.59-12.55h1.37V38.57c0,1.72-.56,2.34-1.8,2.65l-1.61.37v1.11h13.09V41.58l-1.61-.37c-1.61-.37-1.8-1.6-1.8-2.65V1.78h0ZM213.69,31.7c0-12.61-14-15.91-14-25.1,0-2,.74-4.92,3.85-4.92,4.5,0,6.15,5.73,6.89,12.67h1.18v-14h-0.74c-0.31,1.36-.87,2-1.68,2-1.43,0-2.17-2.21-5.59-2.21-5.27,0-8.88,4.37-8.88,10.09,0,10.39,14,14.77,14,24.36,0,4.37-2,6.83-4.84,6.83-4.16,0-6.89-4.86-7.64-12.67h-1.18v14h0.74c0.64-2,1.43-2.21,2.11-2.21,1.18,0,2.42,2.46,6,2.46,5.52,0,9.74-4.74,9.74-11.26M173,4.37c0-1.72.56-2.28,1.8-2.55l1.68-.37V0.31H163.61V1.41L165,1.78c1.24,0.37,1.8.86,1.8,2.58v34.2c0,1.72-.56,2.34-1.8,2.65l-1.37.37v1.11H183.9V28.64h-1.18c-0.64,6.46-1.93,12.55-7.2,12.55H173V4.37h0Zm-41.1,26.88V29.59h-8.35l-0.29,1.66h8.64ZM96.08,42.82h2.57l5.78-30.26h-0.87l6.33,30.26h2.23L119.7,7.14c0.81-3.76,1.24-5,2.73-5.42l1.18-.31V0.31h-8.79V1.41l1.28,0.25c1.86,0.37,2.29,1.48,1.43,6l-4.9,23.93h0.74l-5-25.22c-0.49-2.4-.81-4.37,1.24-4.74L111,1.42V0.31h-12V1.41L99.87,1.6c1.24,0.31,1.43,1,1.93,3.39l1.93,9.17-0.37-5.54L99.07,31h0.56L94.6,6.4C94,3.85,93.85,1.94,95.84,1.6l0.93-.18V0.31H84.57V1.41l1.18,0.31C86.86,2,87.49,2.58,88.23,6l7.88,36.85h0ZM62.94,21.4l1.93,0.06c2.79,0.06,3.6,1.11,4.16,7.82h1.18V12.18H69c-0.68,5.35-1.43,7.64-4.1,7.69l-2,.06V1.78h4.28c4.78,0,5.84,6.09,6.52,12.55h1.18v-14H53.5V1.41l1.37,0.37c1.43,0.37,1.8,1.23,1.8,2.65V38.57c0,1.72-.56,2.34-1.8,2.65l-1.37.37v1.11h22V28.64H74.35c-0.74,6.4-1.55,12.55-7.13,12.55H62.94V21.4h0Zm-39,21.28H36.61V41.58l-1.43-.31c-1.12-.25-1.86-1-1.86-2.71V21.77H42.7v16.8c0,1.72-.74,2.46-1.86,2.71l-1.43.31v1.11H52.13V41.58l-1.37-.37c-1.24-.31-1.8-1-1.8-2.71V4.37c0-1.72.56-2.28,1.8-2.58l1.37-.37V0.31H39.41V1.41l1.43,0.37A2.21,2.21,0,0,1,42.7,4.33V20.11H33.33V4.3c0-1.72.68-2.21,1.86-2.55l1.41-.34V0.31H23.9V1.41l1.36,0.37c1.24,0.37,1.8.86,1.8,2.58v34.2c0,1.72-.56,2.34-1.8,2.65l-1.37.37v1.11h0ZM14.4,1.78h1.37c3.85,0,5.14,6.09,5.59,12.55h1.18v-14H0v14H1.18C1.61,7.87,2.92,1.78,6.76,1.78H8.13V38.57c0,1.72-.56,2.34-1.8,2.65l-1.61.37v1.11h13.4V41.58l-1.93-.43c-1.18-.31-1.8-0.67-1.8-2.58V1.78h0Z"/>
</svg>
